{
    "asset" : {
        "generator" : "Khronos glTF Blender I/O v3.4.49",
        "version" : "2.0"
    },
    "scene" : 0,
    "scenes" : [
        {
            "name" : "Scene",
            "nodes" : [
                0,
                1
            ]
        }
    ],
    "nodes" : [
        {
            "name" : "Cube",
            "translation" : [
                -5.960463749943301e-05,
                1.0004456043243408,
                -3.4525868892669678
            ]
        },
        {
            "mesh" : 0,
            "name" : "Plane",
            "rotation" : [
                0,
                0,
                -0.7071066498756409,
                0.70710688829422
            ],
            "scale" : [
                0.22325479984283447,
                0.7109238505363464,
                0.22325479984283447
            ],
            "translation" : [
                -0.0004950573202222586,
                0.3740474581718445,
                -0.21041710674762726
            ]
        }
    ],
    "materials" : [
        {
            "doubleSided" : true,
            "name" : "Material.015",
            "pbrMetallicRoughness" : {
                "baseColorFactor" : [
                    0.29176604747772217,
                    0.27450424432754517,
                    0.0882239043712616,
                    1
                ],
                "metallicFactor" : 0,
                "roughnessFactor" : 0.5
            }
        },
        {
            "doubleSided" : true,
            "name" : "Material.016",
            "pbrMetallicRoughness" : {
                "baseColorFactor" : [
                    0.1778848022222519,
                    0.12402939796447754,
                    0.030465800315141678,
                    1
                ],
                "metallicFactor" : 0,
                "roughnessFactor" : 0.5
            }
        },
        {
            "doubleSided" : true,
            "name" : "Material.017",
            "pbrMetallicRoughness" : {
                "baseColorFactor" : [
                    0,
                    0,
                    0,
                    1
                ],
                "metallicFactor" : 0,
                "roughnessFactor" : 0.5
            }
        }
    ],
    "meshes" : [
        {
            "name" : "Plane.015",
            "primitives" : [
                {
                    "attributes" : {
                        "POSITION" : 0,
                        "TEXCOORD_0" : 1,
                        "NORMAL" : 2
                    },
                    "indices" : 3,
                    "material" : 0
                },
                {
                    "attributes" : {
                        "POSITION" : 4,
                        "TEXCOORD_0" : 5,
                        "NORMAL" : 6
                    },
                    "indices" : 7,
                    "material" : 1
                },
                {
                    "attributes" : {
                        "POSITION" : 8,
                        "TEXCOORD_0" : 9,
                        "NORMAL" : 10
                    },
                    "indices" : 11,
                    "material" : 2
                }
            ]
        }
    ],
    "accessors" : [
        {
            "bufferView" : 0,
            "componentType" : 5126,
            "count" : 795,
            "max" : [
                1.6606522798538208,
                0.04831059277057648,
                3.5403823852539062
            ],
            "min" : [
                0.09881824254989624,
                -0.059127505868673325,
                -1.7813563346862793
            ],
            "type" : "VEC3"
        },
        {
            "bufferView" : 1,
            "componentType" : 5126,
            "count" : 795,
            "type" : "VEC2"
        },
        {
            "bufferView" : 2,
            "componentType" : 5126,
            "count" : 795,
            "type" : "VEC3"
        },
        {
            "bufferView" : 3,
            "componentType" : 5123,
            "count" : 1392,
            "type" : "SCALAR"
        },
        {
            "bufferView" : 4,
            "componentType" : 5126,
            "count" : 16,
            "max" : [
                0.8886771202087402,
                0.04831059277057648,
                1.1310369968414307
            ],
            "min" : [
                0.38403069972991943,
                -0.05292796343564987,
                -0.5536067485809326
            ],
            "type" : "VEC3"
        },
        {
            "bufferView" : 5,
            "componentType" : 5126,
            "count" : 16,
            "type" : "VEC2"
        },
        {
            "bufferView" : 6,
            "componentType" : 5126,
            "count" : 16,
            "type" : "VEC3"
        },
        {
            "bufferView" : 7,
            "componentType" : 5123,
            "count" : 24,
            "type" : "SCALAR"
        },
        {
            "bufferView" : 8,
            "componentType" : 5126,
            "count" : 1548,
            "max" : [
                1.6606522798538208,
                0.04871620610356331,
                3.5403823852539062
            ],
            "min" : [
                0.09881824254989624,
                -0.06045609340071678,
                -1.7813563346862793
            ],
            "type" : "VEC3"
        },
        {
            "bufferView" : 9,
            "componentType" : 5126,
            "count" : 1548,
            "type" : "VEC2"
        },
        {
            "bufferView" : 10,
            "componentType" : 5126,
            "count" : 1548,
            "type" : "VEC3"
        },
        {
            "bufferView" : 11,
            "componentType" : 5123,
            "count" : 2604,
            "type" : "SCALAR"
        }
    ],
    "bufferViews" : [
        {
            "buffer" : 0,
            "byteLength" : 9540,
            "byteOffset" : 0,
            "target" : 34962
        },
        {
            "buffer" : 0,
            "byteLength" : 6360,
            "byteOffset" : 9540,
            "target" : 34962
        },
        {
            "buffer" : 0,
            "byteLength" : 9540,
            "byteOffset" : 15900,
            "target" : 34962
        },
        {
            "buffer" : 0,
            "byteLength" : 2784,
            "byteOffset" : 25440,
            "target" : 34963
        },
        {
            "buffer" : 0,
            "byteLength" : 192,
            "byteOffset" : 28224,
            "target" : 34962
        },
        {
            "buffer" : 0,
            "byteLength" : 128,
            "byteOffset" : 28416,
            "target" : 34962
        },
        {
            "buffer" : 0,
            "byteLength" : 192,
            "byteOffset" : 28544,
            "target" : 34962
        },
        {
            "buffer" : 0,
            "byteLength" : 48,
            "byteOffset" : 28736,
            "target" : 34963
        },
        {
            "buffer" : 0,
            "byteLength" : 18576,
            "byteOffset" : 28784,
            "target" : 34962
        },
        {
            "buffer" : 0,
            "byteLength" : 12384,
            "byteOffset" : 47360,
            "target" : 34962
        },
        {
            "buffer" : 0,
            "byteLength" : 18576,
            "byteOffset" : 59744,
            "target" : 34962
        },
        {
            "buffer" : 0,
            "byteLength" : 5208,
            "byteOffset" : 78320,
            "target" : 34963
        }
    ],
    "buffers" : [
        {
            "byteLength" : 83528,
            "uri" : "scar.bin"
        }
    ]
}
