{
    "asset" : {
        "generator" : "Khronos glTF Blender I/O v3.4.49",
        "version" : "2.0"
    },
    "scene" : 0,
    "scenes" : [
        {
            "name" : "Scene",
            "nodes" : [
                1
            ]
        }
    ],
    "nodes" : [
        {
            "mesh" : 0,
            "name" : "Cube.001",
            "rotation" : [
                0,
                1,
                0,
                0
            ],
            "scale" : [
                0.0025985410902649164,
                8.765841484069824,
                0.0032171807251870632
            ],
            "translation" : [
                0.413867324590683,
                8.491463661193848,
                0.019419793039560318
            ]
        },
        {
            "children" : [
                0
            ],
            "mesh" : 1,
            "name" : "Cube",
            "rotation" : [
                0,
                1,
                0,
                0
            ],
            "scale" : [
                56.35664749145508,
                0.016706330701708794,
                45.51968765258789
            ],
            "translation" : [
                0.010631561279296875,
                -0.032718658447265625,
                0.7941246032714844
            ]
        }
    ],
    "materials" : [
        {
            "doubleSided" : true,
            "name" : "Material.097",
            "pbrMetallicRoughness" : {
                "baseColorTexture" : {
                    "index" : 0
                },
                "metallicFactor" : 0,
                "roughnessFactor" : 0.5
            }
        },
        {
            "doubleSided" : true,
            "name" : "Material.197",
            "pbrMetallicRoughness" : {
                "baseColorTexture" : {
                    "index" : 1
                },
                "metallicFactor" : 0,
                "roughnessFactor" : 0.5
            }
        }
    ],
    "meshes" : [
        {
            "name" : "Cube.001",
            "primitives" : [
                {
                    "attributes" : {
                        "POSITION" : 0,
                        "TEXCOORD_0" : 1,
                        "NORMAL" : 2
                    },
                    "indices" : 3,
                    "material" : 0
                }
            ]
        },
        {
            "name" : "Cube",
            "primitives" : [
                {
                    "attributes" : {
                        "POSITION" : 4,
                        "TEXCOORD_0" : 5,
                        "NORMAL" : 6
                    },
                    "indices" : 7,
                    "material" : 1
                }
            ]
        }
    ],
    "textures" : [
        {
            "sampler" : 0,
            "source" : 0
        },
        {
            "sampler" : 0,
            "source" : 1
        }
    ],
    "images" : [
        {
            "mimeType" : "image/png",
            "name" : "walls",
            "uri" : "walls.png"
        },
        {
            "mimeType" : "image/png",
            "name" : "floor",
            "uri" : "floor.png"
        }
    ],
    "accessors" : [
        {
            "bufferView" : 0,
            "componentType" : 5126,
            "count" : 4289,
            "max" : [
                358.402099609375,
                10.472036361694336,
                107.7789306640625
            ],
            "min" : [
                -20.0098876953125,
                -1,
                -110.2915267944336
            ],
            "type" : "VEC3"
        },
        {
            "bufferView" : 1,
            "componentType" : 5126,
            "count" : 4289,
            "type" : "VEC2"
        },
        {
            "bufferView" : 2,
            "componentType" : 5126,
            "count" : 4289,
            "type" : "VEC3"
        },
        {
            "bufferView" : 3,
            "componentType" : 5123,
            "count" : 8358,
            "type" : "SCALAR"
        },
        {
            "bufferView" : 4,
            "componentType" : 5126,
            "count" : 38,
            "max" : [
                1,
                1,
                1
            ],
            "min" : [
                -1,
                -1,
                -1
            ],
            "type" : "VEC3"
        },
        {
            "bufferView" : 5,
            "componentType" : 5126,
            "count" : 38,
            "type" : "VEC2"
        },
        {
            "bufferView" : 6,
            "componentType" : 5126,
            "count" : 38,
            "type" : "VEC3"
        },
        {
            "bufferView" : 7,
            "componentType" : 5123,
            "count" : 60,
            "type" : "SCALAR"
        }
    ],
    "bufferViews" : [
        {
            "buffer" : 0,
            "byteLength" : 51468,
            "byteOffset" : 0,
            "target" : 34962
        },
        {
            "buffer" : 0,
            "byteLength" : 34312,
            "byteOffset" : 51468,
            "target" : 34962
        },
        {
            "buffer" : 0,
            "byteLength" : 51468,
            "byteOffset" : 85780,
            "target" : 34962
        },
        {
            "buffer" : 0,
            "byteLength" : 16716,
            "byteOffset" : 137248,
            "target" : 34963
        },
        {
            "buffer" : 0,
            "byteLength" : 456,
            "byteOffset" : 153964,
            "target" : 34962
        },
        {
            "buffer" : 0,
            "byteLength" : 304,
            "byteOffset" : 154420,
            "target" : 34962
        },
        {
            "buffer" : 0,
            "byteLength" : 456,
            "byteOffset" : 154724,
            "target" : 34962
        },
        {
            "buffer" : 0,
            "byteLength" : 120,
            "byteOffset" : 155180,
            "target" : 34963
        }
    ],
    "samplers" : [
        {
            "magFilter" : 9729,
            "minFilter" : 9987
        }
    ],
    "buffers" : [
        {
            "byteLength" : 155300,
            "uri" : "lab_map.bin"
        }
    ]
}
