{
    "asset" : {
        "generator" : "Khronos glTF Blender I/O v3.4.50",
        "version" : "2.0"
    },
    "scene" : 0,
    "scenes" : [
        {
            "name" : "Scene",
            "nodes" : [
                0
            ]
        }
    ],
    "nodes" : [
        {
            "mesh" : 0,
            "name" : "Cylinder",
            "scale" : [
                0.00923012476414442,
                0.00923012476414442,
                0.00923012476414442
            ],
            "translation" : [
                0,
                0.10681568831205368,
                0
            ]
        }
    ],
    "materials" : [
        {
            "doubleSided" : true,
            "name" : "Material.001",
            "pbrMetallicRoughness" : {
                "baseColorFactor" : [
                    0.043733514845371246,
                    0.028213588520884514,
                    0.001215495285578072,
                    1
                ],
                "metallicFactor" : 0,
                "roughnessFactor" : 0.5
            }
        },
        {
            "doubleSided" : true,
            "name" : "Material.002",
            "pbrMetallicRoughness" : {
                "baseColorFactor" : [
                    0.20507465302944183,
                    0.18164180219173431,
                    0.011798619292676449,
                    1
                ],
                "metallicFactor" : 0,
                "roughnessFactor" : 0.5
            }
        },
        {
            "doubleSided" : true,
            "name" : "Material.003",
            "pbrMetallicRoughness" : {
                "baseColorFactor" : [
                    0,
                    0,
                    0,
                    1
                ],
                "metallicFactor" : 0,
                "roughnessFactor" : 0.5
            }
        }
    ],
    "meshes" : [
        {
            "name" : "Cylinder",
            "primitives" : [
                {
                    "attributes" : {
                        "POSITION" : 0,
                        "TEXCOORD_0" : 1,
                        "NORMAL" : 2
                    },
                    "indices" : 3,
                    "material" : 0
                },
                {
                    "attributes" : {
                        "POSITION" : 4,
                        "TEXCOORD_0" : 5,
                        "NORMAL" : 6
                    },
                    "indices" : 7,
                    "material" : 1
                },
                {
                    "attributes" : {
                        "POSITION" : 8,
                        "TEXCOORD_0" : 9,
                        "NORMAL" : 10
                    },
                    "indices" : 11,
                    "material" : 2
                }
            ]
        }
    ],
    "accessors" : [
        {
            "bufferView" : 0,
            "componentType" : 5126,
            "count" : 126,
            "max" : [
                0.9749279022216797,
                1.9199714660644531,
                0.9009688496589661
            ],
            "min" : [
                -0.9749279022216797,
                0.9811199307441711,
                -1
            ],
            "type" : "VEC3"
        },
        {
            "bufferView" : 1,
            "componentType" : 5126,
            "count" : 126,
            "type" : "VEC2"
        },
        {
            "bufferView" : 2,
            "componentType" : 5126,
            "count" : 126,
            "type" : "VEC3"
        },
        {
            "bufferView" : 3,
            "componentType" : 5123,
            "count" : 126,
            "type" : "SCALAR"
        },
        {
            "bufferView" : 4,
            "componentType" : 5126,
            "count" : 186,
            "max" : [
                0.9749279022216797,
                0.9588072299957275,
                0.9009688496589661
            ],
            "min" : [
                -0.9749279022216797,
                -0.9926347136497498,
                -1
            ],
            "type" : "VEC3"
        },
        {
            "bufferView" : 5,
            "componentType" : 5126,
            "count" : 186,
            "type" : "VEC2"
        },
        {
            "bufferView" : 6,
            "componentType" : 5126,
            "count" : 186,
            "type" : "VEC3"
        },
        {
            "bufferView" : 7,
            "componentType" : 5123,
            "count" : 225,
            "type" : "SCALAR"
        },
        {
            "bufferView" : 8,
            "componentType" : 5126,
            "count" : 59,
            "max" : [
                0.9749279022216797,
                1.9199714660644531,
                0.9009688496589661
            ],
            "min" : [
                -0.9749279022216797,
                0.9588072299957275,
                -1
            ],
            "type" : "VEC3"
        },
        {
            "bufferView" : 9,
            "componentType" : 5126,
            "count" : 59,
            "type" : "VEC2"
        },
        {
            "bufferView" : 10,
            "componentType" : 5126,
            "count" : 59,
            "type" : "VEC3"
        },
        {
            "bufferView" : 11,
            "componentType" : 5123,
            "count" : 99,
            "type" : "SCALAR"
        }
    ],
    "bufferViews" : [
        {
            "buffer" : 0,
            "byteLength" : 1512,
            "byteOffset" : 0,
            "target" : 34962
        },
        {
            "buffer" : 0,
            "byteLength" : 1008,
            "byteOffset" : 1512,
            "target" : 34962
        },
        {
            "buffer" : 0,
            "byteLength" : 1512,
            "byteOffset" : 2520,
            "target" : 34962
        },
        {
            "buffer" : 0,
            "byteLength" : 252,
            "byteOffset" : 4032,
            "target" : 34963
        },
        {
            "buffer" : 0,
            "byteLength" : 2232,
            "byteOffset" : 4284,
            "target" : 34962
        },
        {
            "buffer" : 0,
            "byteLength" : 1488,
            "byteOffset" : 6516,
            "target" : 34962
        },
        {
            "buffer" : 0,
            "byteLength" : 2232,
            "byteOffset" : 8004,
            "target" : 34962
        },
        {
            "buffer" : 0,
            "byteLength" : 450,
            "byteOffset" : 10236,
            "target" : 34963
        },
        {
            "buffer" : 0,
            "byteLength" : 708,
            "byteOffset" : 10688,
            "target" : 34962
        },
        {
            "buffer" : 0,
            "byteLength" : 472,
            "byteOffset" : 11396,
            "target" : 34962
        },
        {
            "buffer" : 0,
            "byteLength" : 708,
            "byteOffset" : 11868,
            "target" : 34962
        },
        {
            "buffer" : 0,
            "byteLength" : 198,
            "byteOffset" : 12576,
            "target" : 34963
        }
    ],
    "buffers" : [
        {
            "byteLength" : 12776,
            "uri" : "bullet.bin"
        }
    ]
}
